<?xml version="1.0" standalone="no"?><!DOCTYPE svg PUBLIC "-//W3C//DTD SVG 1.1//EN" "http://www.w3.org/Graphics/SVG/1.1/DTD/svg11.dtd"><svg t="1632117630204" class="icon" viewBox="0 0 1024 1024" version="1.1" xmlns="http://www.w3.org/2000/svg" p-id="3261" xmlns:xlink="http://www.w3.org/1999/xlink" width="200" height="200"><defs><style type="text/css"></style></defs><path d="M1022.974748 256.085476L512.855215 0l-512.854758 255.401669v512.854758l512.854758 255.743573 512.854758-255.743573v-512.854758zM512.855215 62.226377L896.128671 255.059766l-146.334558 73.851085-386.350584-192.149582 149.411686-74.534892zM296.430507 173.003005l391.479132 188.388648-175.054424 85.475793L127.188437 256.085476l170.951586-83.082471zM64.278254 320.705175h20.172287-20.172287v-32.822704l414.386644 207.877128v447.551252L64.278254 735.433723V320.705175z m894.760601 31.113189V735.433723l-415.412354 207.877128V495.759599l415.412354-207.877128v63.935893z" p-id="3262"></path><path d="M1022.974748 256.085476L512.855215 0l-512.854758 255.401669v512.854758l512.854758 255.743573 512.854758-255.743573v-512.854758zM512.855215 62.226377L896.128671 255.059766l-146.334558 73.851085-386.350584-192.149582 149.411686-74.534892zM296.430507 173.003005l391.479132 188.388648-175.054424 85.475793L127.188437 256.085476l170.951586-83.082471zM64.278254 320.705175h20.172287-20.172287v-32.822704l414.386644 207.877128v447.551252L64.278254 735.433723V320.705175z m894.760601 31.113189V735.433723l-415.412354 207.877128V495.759599l415.412354-207.877128v63.935893z" p-id="3263"></path></svg>