<?xml version="1.0" standalone="no"?><!DOCTYPE svg PUBLIC "-//W3C//DTD SVG 1.1//EN" "http://www.w3.org/Graphics/SVG/1.1/DTD/svg11.dtd"><svg t="1623120762997" class="icon" viewBox="0 0 1024 1024" version="1.1" xmlns="http://www.w3.org/2000/svg" p-id="4581" xmlns:xlink="http://www.w3.org/1999/xlink" width="200" height="200"><defs><style type="text/css"></style></defs><path d="M936 407.2l-368-368c-16-16-38.4-21.6-59.2-16-16 0-32 5.6-44.8 17.6L98.4 407.2c-24 24-24 62.4 0 86.4 24 24 62.4 24 86.4 0L462.4 216v725.6c0 33.6 27.2 61.6 61.6 61.6 33.6 0 61.6-27.2 61.6-61.6V232l263.2 263.2c24 24 63.2 24 87.2 0 24.8-24 24.8-63.2 0-88z" p-id="4582" fill="#FFFFFF"></path></svg>