<svg t="1680771907813" class="icon" viewBox="0 0 1169 1024" version="1.1" xmlns="http://www.w3.org/2000/svg" p-id="5300" width="200" height="200"><path d="M45.568 344.576h33.792V45.568c0-25.088 20.48-45.056 45.568-45.568h336.896c13.312 0 26.112 6.144 34.304 16.384l156.16 170.496h393.216c24.576 0 45.056 19.968 45.568 45.056v112.128h34.304c24.576 0 44.544 19.968 44.544 44.544 0 2.56 0 5.12-0.512 7.168l-71.68 581.12c-2.048 13.312-9.728 25.6-20.48 33.28-8.192 8.704-19.968 13.312-31.744 13.312H124.928c-11.776 0-22.528-4.096-31.232-12.288-11.776-8.192-19.456-20.992-21.504-35.328L0.512 395.264c-3.584-24.064 13.312-46.08 37.376-49.664h2.56l5.12-1.024z m124.416 0h831.488v-66.56h-368.64v-0.512c-12.288 0-24.064-5.632-32.256-14.848l-158.72-171.52H169.472l0.512 253.44z" fill="#F7D371" p-id="5301"></path></svg>